# xmcd
#
# Track frame offsets:
# 150
# 18638
# 41043
# 54673
# 73125
# 88423
# 100258
# 119538
# 137628
# 146213
#
# Disc length: 2602 seconds
#
#
# Revision: 2
# Processed by: cddbd v1.5.1PL2 Copyright (c) Steve Scherf et al.
# Submitted via: FreeRIP 2.944 
#
DISCID=9e0a280a
DTITLE=Duke Robillard Band - Turn It Around
DYEAR=1900
DGENRE=Blues
TTITLE0=Down By The Delta
TTITLE1=Passionate Kiss
TTITLE2=Don't Look At My Girl Like That
TTITLE3=Just A Human
TTITLE4=Turn It Around
TTITLE5=Shoulda Coulda Woulda
TTITLE6=The High Cost Of Loving
TTITLE7=Sweets For My Sweet
TTITLE8=Tell Me How
TTITLE9=I Think You Know
EXTD=
EXTT0=
EXTT1=
EXTT2=
EXTT3=
EXTT4=
EXTT5=
EXTT6=
EXTT7=
EXTT8=
EXTT9=
PLAYORDER=
